# xmcd CD database file
#
# Track frame offsets:
#	150
#	15551
#	35429
#	55796
#	71796
#	84838
#	107001
#	126734
#	150775
#	169723
#	187549
#
# Disc length: 2749 seconds
#
# Revision: 0
# Processed by: cddbd v1.5.2PL0 Copyright (c) Steve Scherf et al.
# Submitted via: CDex 1.51
#
DISCID=7c0abb0b
DTITLE=Chuck's Wagon - Chuck's Wagon
DYEAR=2007
DGENRE=Country
TTITLE0=Wreckless
TTITLE1=Heartbreak
TTITLE2=3am
TTITLE3=Miss You
TTITLE4=Then It Did
TTITLE5=Black Road
TTITLE6=You Lied
TTITLE7=Jesus
TTITLE8=Hanging On
TTITLE9=Angels
TTITLE10=Cowboy
EXTD=YEAR: 2007
EXTT0=
EXTT1=
EXTT2=
EXTT3=
EXTT4=
EXTT5=
EXTT6=
EXTT7=
EXTT8=
EXTT9=
EXTT10=
PLAYORDER=
